<svg xmlns="http://www.w3.org/2000/svg" width="101" height="35" viewBox="0 0 101 35">
    <path fill="#FFF" fill-rule="evenodd" d="M14.415 21.18v-.012c.652 0 1.303-.013 1.954.003.579.015.82-.145.68-.781-.278-1.262-.467-2.543-.708-3.814a594.814 594.814 0 0 0-1.48-7.63c-.047-.228-.336-.408-.511-.61-.142.203-.358.39-.41.613-.16.664-.248 1.343-.375 2.015-.6 3.168-1.198 6.338-1.815 9.502-.106.55.14.716.635.715h2.03m34.067-.326c1.155 0 2.309.003 3.463-.001.898-.002.995-.084 1.002-.962.012-1.616-.018-3.231.013-4.845.014-.706-.268-.936-.98-.926-2.36.031-4.718-.001-7.076.022-.58.005-.82-.17-.792-.756a17.59 17.59 0 0 0-.018-2.127c-.108-1.48-.836-2.343-2.34-2.512-1.003-.112-2.046-.012-3.055.11-.871.105-1.426.706-1.653 1.52a6.127 6.127 0 0 0-.235 1.586c-.021 3.108-.012 6.216-.01 9.324 0 .758-.035 1.52.018 2.276.109 1.589.923 2.719 2.619 2.717.699 0 1.401.041 2.095-.013 1.659-.131 2.464-.951 2.567-2.59.042-.683.054-1.372.012-2.055-.04-.628.226-.799.832-.78 1.179.036 2.359.01 3.538.012m-20.061 9.177c.025.294.02.595.08.883.185.912.38 1.822.598 2.727.101.418.05.66-.468.658-2.786-.008-5.573-.007-8.36-.001-.55.001-.634-.354-.708-.768-.26-1.47-.557-2.935-.8-4.408-.1-.615-.429-.8-1.027-.794-2.209.019-4.418.023-6.627-.002-.654-.007-.955.243-1.059.862-.242 1.447-.538 2.886-.783 4.332-.078.461-.189.785-.768.782-2.686-.013-5.372-.005-8.059-.01-.118 0-.237-.047-.44-.091.093-.5.17-.973.27-1.442 1.32-6.251 2.64-12.502 3.966-18.752.888-4.189 1.787-8.375 2.666-12.566.12-.576.387-.793 1.017-.79 4.444.026 8.888.026 13.331.002.66-.004.903.208 1.031.844.532 2.638 1.145 5.261 1.7 7.895.8 3.785 1.573 7.576 2.362 11.362.151.721.33 1.436.497 2.154l.29-.016c.037-.306.107-.613.107-.919.006-3.404-.006-6.808 0-10.21.004-1.843.216-3.65.881-5.399 1.137-2.985 3.306-4.89 6.426-5.66 3.783-.935 7.62-.954 11.398.027 3.413.887 5.546 3.101 6.444 6.44.055.204.128.404.194.607l.24.02c.05-.267.14-.534.141-.802.008-1.812.023-3.624-.022-5.435-.019-.715.239-.92.956-.91 2.56.037 5.121.014 7.682.015.995 0 1 0 1 .96.002 7.493.002 14.986.002 22.478 0 1.196.028 1.227 1.276 1.228 3.189.001 6.377.002 9.565 0 1.113 0 1.115-.005 1.115-1.122V1.661c0-.99 0-.993 1.04-.993 2.561-.002 5.123.022 7.683-.016.721-.011.94.194.937.906-.025 7.027-.015 14.055-.014 21.082 0 .416-.013.834.025 1.248.135 1.47.948 2.282 2.447 2.38.82.053 1.651.042 2.472-.018 1.108-.08 1.868-.733 2.104-1.789.11-.496.135-1.02.136-1.53.008-7.052.006-14.104.006-21.155 0-1.108.002-1.109 1.168-1.109 2.536 0 5.071.02 7.607-.015.675-.009.855.218.854.847-.018 7.272 0 14.545-.022 21.816-.005 2.02-.301 4.01-1.192 5.86-1.155 2.398-3.01 4.116-5.617 4.881-4.286 1.26-8.62 1.269-12.9-.035-2.292-.698-4.002-2.178-5.181-4.232-.118-.206-.364-.342-.55-.51-.074.238-.208.475-.211.714-.014 1.199-.02 2.399.027 3.598.022.562-.19.718-.736.716-6.98-.012-13.959-.014-20.939.002-.609.001-.759-.205-.746-.775.042-1.934.032-3.869.027-5.803-.001-.268-.084-.535-.129-.802l-.231-.02c-.117.373-.236.746-.352 1.12-1.128 3.652-3.753 5.723-7.473 6.457-3.453.68-6.938.702-10.369-.226-2.256-.61-4.087-1.824-5.331-3.806-.118-.187-.299-.336-.45-.503l-.204.08"/>
</svg>
