<svg xmlns="http://www.w3.org/2000/svg" xmlns:xlink="http://www.w3.org/1999/xlink" width="100%" height="93" viewBox="0 0 375 93">
    <defs>
        <path id="b" d="M0 0h101v35H0z"/>
    </defs>
    <g fill="none" fill-rule="evenodd">
        <path fill="url(#a)" d="M0 93h375V0H0z"/>
        <g transform="translate(40 34)">
            <mask id="c" fill="#fff">
                <use xlink:href="#b"/>
            </mask>
            <path fill="#FFF" d="M14.415 21.18v-.012c.652 0 1.303-.013 1.954.003.579.015.82-.145.68-.781-.278-1.262-.467-2.543-.708-3.814a594.814 594.814 0 0 0-1.48-7.63c-.047-.228-.336-.408-.511-.61-.142.203-.358.39-.41.613-.16.664-.248 1.343-.375 2.015-.6 3.168-1.198 6.338-1.815 9.502-.106.55.14.716.635.715h2.03m34.067-.326c1.155 0 2.309.003 3.463-.001.898-.002.995-.084 1.002-.962.012-1.616-.018-3.231.013-4.845.014-.706-.268-.936-.98-.926-2.36.031-4.718-.001-7.076.022-.58.005-.82-.17-.792-.756a17.59 17.59 0 0 0-.018-2.127c-.108-1.48-.836-2.343-2.34-2.512-1.003-.112-2.046-.012-3.055.11-.871.105-1.426.706-1.653 1.52a6.127 6.127 0 0 0-.235 1.586c-.021 3.108-.012 6.216-.01 9.324 0 .758-.035 1.52.018 2.276.109 1.589.923 2.719 2.619 2.717.699 0 1.401.041 2.095-.013 1.659-.131 2.464-.951 2.567-2.59.042-.683.054-1.372.012-2.055-.04-.628.226-.799.832-.78 1.179.036 2.359.01 3.538.012m-20.061 9.177c.025.294.02.595.08.883.185.912.38 1.822.598 2.727.101.418.05.66-.468.658-2.786-.008-5.573-.007-8.36-.001-.55.001-.634-.354-.708-.768-.26-1.47-.557-2.935-.8-4.408-.1-.615-.429-.8-1.027-.794-2.209.019-4.418.023-6.627-.002-.654-.007-.955.243-1.059.862-.242 1.447-.538 2.886-.783 4.332-.078.461-.189.785-.768.782-2.686-.013-5.372-.005-8.059-.01-.118 0-.237-.047-.44-.091.093-.5.17-.973.27-1.442 1.32-6.251 2.64-12.502 3.966-18.752.888-4.189 1.787-8.375 2.666-12.566.12-.576.387-.793 1.017-.79 4.444.026 8.888.026 13.331.002.66-.004.903.208 1.031.844.532 2.638 1.145 5.261 1.7 7.895.8 3.785 1.573 7.576 2.362 11.362.151.721.33 1.436.497 2.154l.29-.016c.037-.306.107-.613.107-.919.006-3.404-.006-6.808 0-10.21.004-1.843.216-3.65.881-5.399 1.137-2.985 3.306-4.89 6.426-5.66 3.783-.935 7.62-.954 11.398.027 3.413.887 5.546 3.101 6.444 6.44.055.204.128.404.194.607l.24.02c.05-.267.14-.534.141-.802.008-1.812.023-3.624-.022-5.435-.019-.715.239-.92.956-.91 2.56.037 5.121.014 7.682.015.995 0 1 0 1 .96.002 7.493.002 14.986.002 22.478 0 1.196.028 1.227 1.276 1.228 3.189.001 6.377.002 9.565 0 1.113 0 1.115-.005 1.115-1.122V1.661c0-.99 0-.993 1.04-.993 2.561-.002 5.123.022 7.683-.016.721-.011.94.194.937.906-.025 7.027-.015 14.055-.014 21.082 0 .416-.013.834.025 1.248.135 1.47.948 2.282 2.447 2.38.82.053 1.651.042 2.472-.018 1.108-.08 1.868-.733 2.104-1.789.11-.496.135-1.02.136-1.53.008-7.052.006-14.104.006-21.155 0-1.108.002-1.109 1.168-1.109 2.536 0 5.071.02 7.607-.015.675-.009.855.218.854.847-.018 7.272 0 14.545-.022 21.816-.005 2.02-.301 4.01-1.192 5.86-1.155 2.398-3.01 4.116-5.617 4.881-4.286 1.26-8.62 1.269-12.9-.035-2.292-.698-4.002-2.178-5.181-4.232-.118-.206-.364-.342-.55-.51-.074.238-.208.475-.211.714-.014 1.199-.02 2.399.027 3.598.022.562-.19.718-.736.716-6.98-.012-13.959-.014-20.939.002-.609.001-.759-.205-.746-.775.042-1.934.032-3.869.027-5.803-.001-.268-.084-.535-.129-.802l-.231-.02c-.117.373-.236.746-.352 1.12-1.128 3.652-3.753 5.723-7.473 6.457-3.453.68-6.938.702-10.369-.226-2.256-.61-4.087-1.824-5.331-3.806-.118-.187-.299-.336-.45-.503l-.204.08" mask="url(#c)"/>
        </g>
        <path fill="#FFF" fill-rule="nonzero" d="M244.021 24c-5.596 0-9.021 3.821-9.021 9.893 0 6.1 3.425 9.923 9.021 9.923 1.532 0 2.674-.163 4.178-.652l1.335-.434c.25-.081.306-.216.223-.433l-1.113-2.955c-.056-.217-.223-.298-.445-.216l-1.31.379c-1.002.324-1.838.406-2.868.406-2.784 0-4.482-2.195-4.482-6.018 0-3.768 1.698-5.963 4.482-5.963 1.28 0 2.088.11 2.896.354l1.31.404c.222.082.362 0 .445-.216l1.001-3.063c.084-.218 0-.352-.222-.434l-1.28-.406c-1.392-.435-2.563-.569-4.15-.569zm16.593 0c-5.512 0-8.882 3.794-8.882 9.893 0 6.072 3.37 9.923 8.882 9.923 5.485 0 8.854-3.85 8.854-9.923 0-6.099-3.369-9.893-8.854-9.893zm12 .298c-.222 0-.361.135-.361.352v18.514c0 .217.139.352.361.352h6.904c5.457 0 8.91-3.85 8.91-9.596 0-5.882-3.341-9.622-8.91-9.622h-6.904zm18.96 0c-.221 0-.361.135-.361.352v18.514c0 .217.14.352.361.352h13.252c.223 0 .362-.135.362-.352v-3.117c0-.218-.139-.353-.362-.353h-9.104v-4.146h6.82c.222 0 .362-.136.362-.352v-3.12c0-.217-.14-.35-.361-.35h-6.821v-3.58h8.27c.195 0 .333-.107.387-.297l.893-3.145c.055-.244-.055-.406-.306-.406h-13.392zm-30.96 3.632c2.7 0 4.317 2.168 4.317 5.963 0 3.715-1.616 6.018-4.317 6.018-2.7 0-4.342-2.303-4.342-6.018 0-3.795 1.641-5.963 4.342-5.963zm16.148.217h2.756c2.701 0 4.373 2.06 4.373 5.773 0 3.687-1.672 5.774-4.373 5.774h-2.756V28.147zm40.303.923c-1.74 0-2.96 1.107-3.29 2.982l-.29 1.812h-.973c-.103 0-.167.06-.188.163l-.144.826c-.02.12.041.2.165.2h.932l-1.365 8.262c-.023.12.04.2.164.2h.974c.103 0 .163-.059.185-.16l1.387-8.301h2.34c.102 0 .164-.06.185-.16l.146-.829c.02-.12-.043-.199-.167-.199h-2.298l.29-1.713c.187-1.128.913-1.855 1.885-1.855.227 0 .434.04.663.122l.206.08c.103.06.187.02.248-.08l.434-.766c.063-.101.043-.182-.081-.243l-.311-.12c-.372-.141-.684-.221-1.097-.221zm6.19 4.593c-3.931 0-5.378 3.627-5.378 6.147 0 2.438 1.406 3.907 3.87 3.907 3.933 0 5.36-3.665 5.36-6.165 0-2.417-1.409-3.889-3.851-3.889zm12.01 0c-1.573.061-2.751.747-3.705 1.955-.122.161-.247.12-.266-.04l.102-1.533c.02-.121-.043-.179-.167-.179h-.661c-.103 0-.166.059-.188.16l-1.53 9.29c-.021.12.04.2.165.2h.973c.104 0 .165-.06.186-.16l.517-3.163c.58-3.426 2.153-5.24 4.41-5.32.103 0 .165-.06.185-.162l.144-.845c.02-.12-.042-.203-.165-.203zm-12.049 1.21c1.636 0 2.567 1.007 2.567 2.74 0 1.874-.994 4.896-3.995 4.896-1.655 0-2.566-1.006-2.566-2.74 0-1.873.973-4.896 3.994-4.896zm-48.884 12.995a1.208 1.208 0 0 0-.52.025c-.602.176-1.238.896-.943 1.78l5.604 16.095c.48 1.857 1.818 3.232 3.974 3.216l9.72.016c2.349.005 2.986-1.204 3.5-2.955l5.237-13.317c.206-.885-.365-1.796-1.299-2.03l-.09-.015c-.915-.201-1.764.619-2.082 1.27l-3.719 6.772.227.982c.302 1.314-.57 2.642-1.933 2.96 0 0-1.015.134-1.746-.195 0 0 .365 2.082-1.792 2.578-2.111.484-2.959-.824-3.28-1.957-1.24 1.334-3.25 1.227-4.051-.255l-5.37-13.792c-.213-.682-.868-1.092-1.437-1.178zm-38.412 1.914c-.222 0-.361.135-.361.352v18.514c0 .217.139.352.361.352h3.786c.223 0 .362-.135.362-.352v-7.616h7.238v7.616c0 .217.139.352.362.352h3.76c.223 0 .362-.135.362-.352V50.134c0-.217-.139-.352-.362-.352h-3.76c-.223 0-.362.135-.362.352v7.077h-7.238v-7.077c0-.217-.14-.352-.362-.352h-3.786zm26.224 0c-.222 0-.361.108-.417.298-.696 2.738-1.615 5.396-2.645 8.16l-3.926 10.354c-.083.244.028.406.306.406h3.928c.194 0 .334-.08.417-.27l.835-2.276h8.186l.835 2.275c.083.19.222.271.417.271h3.928c.278 0 .39-.162.306-.406l-3.928-10.354c-1.03-2.764-1.95-5.422-2.645-8.16-.056-.19-.195-.298-.417-.298h-5.18zm45.012 0c-.223 0-.361.108-.417.298-.694 2.738-1.614 5.396-2.643 8.16l-3.927 10.354c-.084.244.027.406.306.406h3.927c.194 0 .334-.08.417-.27l.835-2.276h8.184l.837 2.275c.084.19.225.271.42.271h3.923c.277 0 .39-.162.306-.406l-3.926-10.354c-1.03-2.764-1.95-5.422-2.645-8.16-.056-.19-.194-.298-.417-.298h-5.18zm15.87 0c-.223 0-.362.135-.362.352v18.514c0 .217.14.352.362.352h3.788c.222 0 .362-.135.362-.352V50.134c0-.217-.14-.352-.362-.352h-3.788zm8.826 0c-.221 0-.361.135-.361.352v18.514c0 .217.14.352.361.352h3.786c.222 0 .362-.135.362-.352V50.134c0-.217-.14-.352-.362-.352h-3.786zm-42.49 3.275a1.552 1.552 0 0 0-.475.052c-.594.166-.936.803-.76 1.598l1.732 5.806c.351 1.474 2.024 1.183 2.024 1.183.811-.177 1.322-.968 1.138-1.736l-2.335-5.905c-.3-.709-.828-.976-1.323-.998zm-4.184.059c-.14.011-.23.036-.23.036-.792.18-1.32.938-1.147 1.734l2.448 8.218c.426 1.404 1.815 1.095 1.815 1.095.792-.182 1.324-.94 1.145-1.736l-2.445-8.22c-.291-1.092-1.167-1.161-1.586-1.127zm-3.663 1.372c-.17.005-.344.045-.515.106-.675.245-1.201.748-1.022 1.547l1.685 5.708c.418 1.458 1.815 1.12 1.815 1.12.787-.18 1.327-.968 1.143-1.736l-1.834-5.524c-.28-.938-.76-1.236-1.272-1.22zm-16.781.361c.104 0 .21.084.253.246.334 1.763 1.223 4.31 2.03 6.452l.39 1.083h-5.344l.39-1.083c.807-2.17 1.669-4.69 2.03-6.452.042-.162.146-.246.25-.246zm45.012 0c.104 0 .209.084.25.246.334 1.763 1.227 4.31 2.034 6.452l.39 1.083h-5.347l.392-1.083c.807-2.17 1.67-4.69 2.033-6.452.042-.162.144-.246.248-.246z"/>
    </g>
</svg>
