<svg xmlns="http://www.w3.org/2000/svg" width="101" height="45" viewBox="0 0 101 45">
    <path fill="#FFF" fill-rule="nonzero" d="M9.021 0C3.425 0 0 3.821 0 9.893c0 6.1 3.425 9.923 9.021 9.923 1.532 0 2.674-.163 4.178-.652l1.335-.434c.25-.081.306-.216.223-.433l-1.113-2.955c-.056-.217-.223-.298-.445-.216l-1.31.379c-1.002.324-1.838.406-2.868.406-2.784 0-4.482-2.195-4.482-6.018 0-3.768 1.698-5.963 4.482-5.963 1.28 0 2.088.11 2.896.354l1.31.404c.222.082.362 0 .445-.216l1.001-3.063c.084-.218 0-.352-.222-.434L13.17.57C11.779.134 10.608 0 9.021 0zm16.593 0c-5.512 0-8.882 3.794-8.882 9.893 0 6.072 3.37 9.923 8.882 9.923 5.485 0 8.854-3.85 8.854-9.923C34.468 3.794 31.1 0 25.614 0zm12 .298c-.222 0-.361.135-.361.352v18.514c0 .217.139.352.361.352h6.904c5.457 0 8.91-3.85 8.91-9.596 0-5.882-3.341-9.622-8.91-9.622h-6.904zm18.96 0c-.221 0-.361.135-.361.352v18.514c0 .217.14.352.361.352h13.252c.223 0 .362-.135.362-.352v-3.117c0-.218-.139-.353-.362-.353h-9.104v-4.146h6.82c.222 0 .362-.136.362-.352v-3.12c0-.217-.14-.35-.361-.35h-6.821v-3.58h8.27c.195 0 .333-.107.387-.297l.893-3.145c.055-.244-.055-.406-.306-.406H56.574zM25.614 3.93c2.7 0 4.317 2.168 4.317 5.963 0 3.715-1.616 6.018-4.317 6.018-2.7 0-4.342-2.303-4.342-6.018 0-3.795 1.641-5.963 4.342-5.963zm16.148.217h2.756c2.701 0 4.373 2.06 4.373 5.773 0 3.687-1.672 5.774-4.373 5.774h-2.756V4.147zm40.303.923c-1.74 0-2.96 1.107-3.29 2.982l-.29 1.812h-.973c-.103 0-.167.06-.188.163l-.144.826c-.02.12.041.2.165.2h.932l-1.365 8.262c-.023.12.04.2.164.2h.974c.103 0 .163-.059.185-.16l1.387-8.301h2.34c.102 0 .164-.06.185-.16l.146-.829c.02-.12-.043-.199-.167-.199h-2.298l.29-1.713c.187-1.128.913-1.855 1.885-1.855.227 0 .434.04.663.122l.206.08c.103.06.187.02.248-.08l.434-.766c.063-.101.043-.182-.081-.243l-.311-.12c-.372-.141-.684-.221-1.097-.221zm6.19 4.593c-3.931 0-5.378 3.627-5.378 6.147 0 2.438 1.406 3.907 3.87 3.907 3.933 0 5.36-3.665 5.36-6.165 0-2.417-1.409-3.889-3.851-3.889zm12.01 0c-1.573.061-2.751.747-3.705 1.955-.122.161-.247.12-.266-.04l.102-1.533c.02-.121-.043-.179-.167-.179h-.661c-.103 0-.166.059-.188.16l-1.53 9.29c-.021.12.04.2.165.2h.973c.104 0 .165-.06.186-.16l.517-3.163c.58-3.426 2.153-5.24 4.41-5.32.103 0 .165-.06.185-.162l.144-.845c.02-.12-.042-.203-.165-.203zm-12.049 1.21c1.636 0 2.567 1.007 2.567 2.74 0 1.874-.994 4.896-3.995 4.896-1.655 0-2.566-1.006-2.566-2.74 0-1.873.973-4.896 3.994-4.896zM39.332 23.868a1.208 1.208 0 0 0-.52.025c-.602.176-1.238.896-.943 1.78l5.604 16.095c.48 1.857 1.818 3.232 3.974 3.216l9.72.016c2.349.005 2.986-1.204 3.5-2.955l5.237-13.317c.206-.885-.365-1.796-1.299-2.03l-.09-.015c-.915-.201-1.764.619-2.082 1.27l-3.719 6.772.227.982c.302 1.314-.57 2.642-1.933 2.96 0 0-1.015.134-1.746-.195 0 0 .365 2.082-1.792 2.578-2.111.484-2.959-.824-3.28-1.957-1.24 1.334-3.25 1.227-4.051-.255l-5.37-13.792c-.213-.682-.868-1.092-1.437-1.178zM.92 25.782c-.222 0-.361.135-.361.352v18.514c0 .217.139.352.361.352h3.786c.223 0 .362-.135.362-.352v-7.616h7.238v7.616c0 .217.139.352.362.352h3.76c.223 0 .362-.135.362-.352V26.134c0-.217-.139-.352-.362-.352h-3.76c-.223 0-.362.135-.362.352v7.077H5.068v-7.077c0-.217-.14-.352-.362-.352H.92zm26.224 0c-.222 0-.361.108-.417.298-.696 2.738-1.615 5.396-2.645 8.16l-3.926 10.354c-.083.244.028.406.306.406h3.928c.194 0 .334-.08.417-.27l.835-2.276h8.186l.835 2.275c.083.19.222.271.417.271h3.928c.278 0 .39-.162.306-.406L35.386 34.24c-1.03-2.764-1.95-5.422-2.645-8.16-.056-.19-.195-.298-.417-.298h-5.18zm45.012 0c-.223 0-.361.108-.417.298-.694 2.738-1.614 5.396-2.643 8.16L65.17 44.594c-.084.244.027.406.306.406h3.927c.194 0 .334-.08.417-.27l.835-2.276h8.184l.837 2.275c.084.19.225.271.42.271h3.923c.277 0 .39-.162.306-.406L80.398 34.24c-1.03-2.764-1.95-5.422-2.645-8.16-.056-.19-.194-.298-.417-.298h-5.18zm15.87 0c-.223 0-.362.135-.362.352v18.514c0 .217.14.352.362.352h3.788c.222 0 .362-.135.362-.352V26.134c0-.217-.14-.352-.362-.352h-3.788zm8.826 0c-.221 0-.361.135-.361.352v18.514c0 .217.14.352.361.352h3.786c.222 0 .362-.135.362-.352V26.134c0-.217-.14-.352-.362-.352h-3.786zm-42.49 3.275a1.552 1.552 0 0 0-.475.052c-.594.166-.936.803-.76 1.598l1.732 5.806c.351 1.474 2.024 1.183 2.024 1.183.811-.177 1.322-.968 1.138-1.736l-2.335-5.905c-.3-.709-.828-.976-1.323-.998zm-4.184.059c-.14.011-.23.036-.23.036-.792.18-1.32.938-1.147 1.734l2.448 8.218c.426 1.404 1.815 1.095 1.815 1.095.792-.182 1.324-.94 1.145-1.736l-2.445-8.22c-.291-1.092-1.167-1.161-1.586-1.127zm-3.663 1.372c-.17.005-.344.045-.515.106-.675.245-1.201.748-1.022 1.547l1.685 5.708c.418 1.458 1.815 1.12 1.815 1.12.787-.18 1.327-.968 1.143-1.736l-1.834-5.524c-.28-.938-.76-1.236-1.272-1.22zm-16.781.361c.104 0 .21.084.253.246.334 1.763 1.223 4.31 2.03 6.452l.39 1.083h-5.344l.39-1.083c.807-2.17 1.669-4.69 2.03-6.452.042-.162.146-.246.25-.246zm45.012 0c.104 0 .209.084.25.246.334 1.763 1.227 4.31 2.034 6.452l.39 1.083h-5.347l.392-1.083c.807-2.17 1.67-4.69 2.033-6.452.042-.162.144-.246.248-.246z"/>
</svg>
