<svg xmlns="http://www.w3.org/2000/svg" width="176" height="114" viewBox="0 0 176 114">
    <g fill="none" fill-rule="evenodd">
        <text fill="#FFF" font-family="MetaSerifPro-Bold, Meta Serif Pro" font-size="56.186" font-weight="bold" transform="translate(0 -14)">
            <tspan x="40" y="56">holo</tspan>
        </text>
        <text fill="#FFF" font-family="MetaSerifPro-Bold, Meta Serif Pro" font-size="56.186" font-weight="bold" transform="translate(0 -14)">
            <tspan x="58" y="106">holo</tspan>
        </text>
        <path stroke="#FFF" stroke-width=".85" d="M75.993 40.91v2.528H60.88M54.923 22.2V37.09m3.428 3.82v2.528h-15.17m10.731-41.24c.506.844 1.012 2.642 1.012 5.564v5.792m17.29 5.959c.264.92.407 1.966.407 3.137v14.327M91.053 18.125c-2.124 1.055-3.091 4.25-3.091 11.212 0 3.471.23 6.09.834 7.932m17.956-13.55c.388 1.49.594 3.155.594 5 0 10.675-6.63 15.45-14.44 15.45M121.28 2.199c.28.562 1.01 2.19 1.01 5.562v29.16m3.484 3.99v2.527h-15.283M140.927 18.125c-2.125 1.055-3.092 4.25-3.092 11.212 0 3.471.23 6.09.834 7.932m17.956-13.55c.388 1.49.593 3.155.593 5 0 10.675-6.63 15.45-14.439 15.45M93.563 90.216v2.528H78.449m-5.955-21.237v14.89m3.427 3.82v2.527H60.75m10.73-41.239c.507.843 1.013 2.641 1.013 5.563v5.792m17.289 5.96c.266.92.409 1.964.409 3.136v14.327M108.623 67.431c-2.125 1.055-3.093 4.25-3.093 11.212 0 3.472.23 6.09.835 7.932m17.956-13.55c.388 1.49.593 3.156.593 5 0 10.675-6.63 15.45-14.44 15.45M138.848 51.505c.281.562 1.011 2.191 1.011 5.562v29.16m3.483 3.99v2.527H128.06M158.495 67.431c-2.124 1.055-3.092 4.25-3.092 11.212 0 3.472.23 6.09.835 7.932m17.956-13.55c.387 1.49.593 3.156.593 5 0 10.675-6.63 15.45-14.439 15.45"/>
        <path fill="#FFF" d="M43.325 85.903c-6.05 4.793-12.554 9.147-18.809 13.689l-11.929 8.659c-2.518 1.827-6.245 5.859-9.868 3.55-.687-.436-1.321.655-.638 1.09 3.165 2.016 5.557.5 8.159-1.385l12.525-9.09c7.139-5.184 14.535-10.142 21.452-15.621.636-.504-.262-1.392-.892-.892"/>
        <path fill="#FFF" d="M13.846 70.407a8.411 8.411 0 1 0 16.775-1.26 8.411 8.411 0 0 0-16.775 1.26m-5.928 38.377c-1.343.96-3.114 1.079-4.623.31-1.508-.77-2.452-2.27-2.465-3.917L.536 68.662c.055-.433.104-.92.157-1.444.236-2.344.532-5.261 1.577-7.31a22.026 22.026 0 0 1 2.121-3.355l.279-.362.027.048c6.233-8.004 16.234-10.62 26.229-6.82.175.066.34.148.493.243.601.248 1.184.516 1.736.797 11.408 5.816 16.116 19.518 10.495 30.544-1.046 2.052-3.734 4.549-4.992 5.576"/>
        <path fill="#FFF" d="M26.85 65.01c-2.713-2.62-7.01-2.897-9.81-.204-2.809 2.701-2.702 6.974-.204 9.81.538.611 1.428-.285.892-.892-2.045-2.322-2.098-5.835.204-8.027 2.31-2.198 5.8-1.945 8.026.204.584.564 1.477-.327.892-.892"/>
    </g>
</svg>
